<svg xmlns="http://www.w3.org/2000/svg" xmlns:lucid="lucid" width="240" height="240"><g lucid:page-tab-id="0_0" stroke="#000" stroke-opacity="0" stroke-width="3"><path d="M120 20C64.77 20 20 64.77 20 120s44.77 100 100 100 100-44.77 100-100S175.23 20 120 20zm0 30c38.66 0 70 31.34 70 70s-31.34 70-70 70-70-31.34-70-70 31.34-70 70-70z" fill="#e5e5e5"/><path d="M120 20c55.23 0 100 44.77 100 100s-44.77 100-100 100c-44.18 0-81.45-27.08-95.1-69.1l28.53-9.27C62.98 171.05 89.07 190 120 190c38.66 0 70-31.34 70-70s-31.34-70-70-70z" fill="#28a745"/></g></svg>